<svg width="134" height="85" viewBox="0 0 134 85" fill="none" xmlns="http://www.w3.org/2000/svg">
<rect width="134" height="85" fill="white"/>
<path d="M20.44 36.48C18.2533 36.48 16.2133 36.12 14.32 35.4C12.4533 34.6533 10.8133 33.6133 9.4 32.28C7.98667 30.9467 6.88 29.3867 6.08 27.6C5.30667 25.7867 4.92 23.8267 4.92 21.72C4.92 19.5867 5.30667 17.6267 6.08 15.84C6.88 14.0533 7.97333 12.5067 9.36 11.2C10.7733 9.89333 12.4133 8.88 14.28 8.16C16.1467 7.41333 18.1733 7.04 20.36 7.04C22.5733 7.04 24.6 7.38667 26.44 8.08C28.28 8.77333 29.88 9.73333 31.24 10.96L25.92 16.32C25.28 15.6267 24.4933 15.08 23.56 14.68C22.6533 14.28 21.5867 14.08 20.36 14.08C19.2933 14.08 18.3067 14.2533 17.4 14.6C16.52 14.9467 15.76 15.4533 15.12 16.12C14.48 16.7867 13.9733 17.6 13.6 18.56C13.2533 19.4933 13.08 20.5467 13.08 21.72C13.08 22.92 13.2533 24 13.6 24.96C13.9733 25.8933 14.48 26.6933 15.12 27.36C15.76 28.0267 16.52 28.5467 17.4 28.92C18.3067 29.2667 19.2933 29.44 20.36 29.44C21.56 29.44 22.6267 29.2533 23.56 28.88C24.52 28.5067 25.3467 27.96 26.04 27.24L31.4 32.6C29.9867 33.8267 28.4 34.7867 26.64 35.48C24.88 36.1467 22.8133 36.48 20.44 36.48ZM34.9725 36V7.52H42.9725V36H34.9725ZM41.4525 36V29.36H56.7325V36H41.4525ZM41.4525 24.72V18.24H55.2525V24.72H41.4525ZM41.4525 14.16V7.52H56.4925V14.16H41.4525ZM78.5994 36L68.6394 21.16L78.1194 7.52H87.7594L76.7994 22.32L76.7594 19.76L88.1994 36H78.5994ZM61.3194 36V7.52H69.3194V36H61.3194ZM12.84 66V60.24H18C18.6133 60.24 19.1733 60.12 19.68 59.88C20.2133 59.6133 20.64 59.2267 20.96 58.72C21.28 58.1867 21.44 57.5333 21.44 56.76C21.44 55.9867 21.28 55.3467 20.96 54.84C20.64 54.3067 20.2133 53.92 19.68 53.68C19.1733 53.4133 18.6133 53.28 18 53.28H12.84V47.52H19.56C21.4 47.52 23.0533 47.8933 24.52 48.64C26.0133 49.36 27.1867 50.4133 28.04 51.8C28.92 53.16 29.36 54.8133 29.36 56.76C29.36 58.68 28.92 60.3333 28.04 61.72C27.1867 63.1067 26.0133 64.1733 24.52 64.92C23.0533 65.64 21.4 66 19.56 66H12.84ZM6.36 76V47.52H14.36V76H6.36ZM47.3337 76.56C45.0938 76.56 43.0271 76.1867 41.1337 75.44C39.2671 74.6933 37.6271 73.6533 36.2137 72.32C34.8271 70.9867 33.7471 69.4133 32.9737 67.6C32.2004 65.7867 31.8137 63.8267 31.8137 61.72C31.8137 59.5867 32.1871 57.6267 32.9337 55.84C33.7071 54.0533 34.7871 52.4933 36.1737 51.16C37.5604 49.8267 39.1871 48.8 41.0537 48.08C42.9471 47.3333 45.0137 46.96 47.2537 46.96C49.4938 46.96 51.5471 47.3333 53.4138 48.08C55.3071 48.8 56.9471 49.8267 58.3338 51.16C59.7204 52.4933 60.7871 54.0667 61.5338 55.88C62.3071 57.6667 62.6937 59.6267 62.6937 61.76C62.6937 63.8667 62.3071 65.8267 61.5338 67.64C60.7871 69.4267 59.7204 71 58.3338 72.36C56.9471 73.6933 55.3204 74.7333 53.4537 75.48C51.5871 76.2 49.5471 76.56 47.3337 76.56ZM47.2537 69.52C48.7471 69.52 50.0404 69.2 51.1338 68.56C52.2271 67.92 53.0671 67.0133 53.6537 65.84C54.2404 64.6667 54.5338 63.2933 54.5338 61.72C54.5338 60.5467 54.3604 59.4933 54.0137 58.56C53.6938 57.6 53.2138 56.7867 52.5738 56.12C51.9338 55.4267 51.1604 54.9067 50.2538 54.56C49.3738 54.1867 48.3738 54 47.2537 54C45.7604 54 44.4671 54.32 43.3737 54.96C42.2804 55.5733 41.4404 56.4667 40.8537 57.64C40.2671 58.7867 39.9737 60.1467 39.9737 61.72C39.9737 62.92 40.1337 64 40.4537 64.96C40.8004 65.92 41.2937 66.7467 41.9338 67.44C42.5737 68.1067 43.3337 68.6267 44.2137 69C45.1204 69.3467 46.1337 69.52 47.2537 69.52ZM73.2681 64.64V59.12H78.1081C79.2015 59.12 80.0281 58.8533 80.5881 58.32C81.1748 57.7867 81.4681 57.08 81.4681 56.2C81.4681 55.32 81.1748 54.6133 80.5881 54.08C80.0281 53.5467 79.2015 53.28 78.1081 53.28H73.2681V47.52H79.3881C81.3615 47.52 83.0948 47.88 84.5881 48.6C86.0815 49.32 87.2548 50.32 88.1081 51.6C88.9615 52.88 89.3881 54.3733 89.3881 56.08C89.3881 57.7867 88.9481 59.28 88.0681 60.56C87.2148 61.84 86.0148 62.84 84.4681 63.56C82.9215 64.28 81.0948 64.64 78.9881 64.64H73.2681ZM66.7881 76V47.52H74.7881V76H66.7881ZM82.1481 76L74.3881 63.84L81.5881 62.28L91.2281 76H82.1481ZM102.648 76.48C100.221 76.48 98.1008 76.1333 96.2875 75.44C94.5008 74.72 92.8475 73.5867 91.3275 72.04L96.3275 67.04C97.3675 68.0267 98.4608 68.7867 99.6075 69.32C100.754 69.8267 101.981 70.08 103.288 70.08C104.381 70.08 105.208 69.92 105.768 69.6C106.328 69.2533 106.608 68.7867 106.608 68.2C106.608 67.6133 106.368 67.1333 105.888 66.76C105.408 66.36 104.768 66.0133 103.968 65.72C103.194 65.4 102.328 65.08 101.368 64.76C100.434 64.44 99.5008 64.0533 98.5675 63.6C97.6342 63.1467 96.7675 62.6 95.9675 61.96C95.1942 61.2933 94.5675 60.48 94.0875 59.52C93.6075 58.5333 93.3675 57.3333 93.3675 55.92C93.3675 54.08 93.8075 52.4933 94.6875 51.16C95.5675 49.8267 96.8075 48.8133 98.4075 48.12C100.008 47.4 101.888 47.04 104.048 47.04C106.181 47.04 108.154 47.3867 109.968 48.08C111.808 48.7467 113.328 49.7067 114.528 50.96L109.488 55.96C108.608 55.1067 107.728 54.48 106.848 54.08C105.968 53.6533 105.008 53.44 103.968 53.44C103.141 53.44 102.474 53.5733 101.968 53.84C101.488 54.1067 101.248 54.5067 101.248 55.04C101.248 55.6 101.488 56.0667 101.968 56.44C102.448 56.7867 103.074 57.1067 103.848 57.4C104.648 57.6933 105.514 58 106.448 58.32C107.408 58.64 108.354 59.0267 109.288 59.48C110.221 59.9067 111.074 60.4667 111.848 61.16C112.648 61.8267 113.288 62.6667 113.768 63.68C114.248 64.6933 114.488 65.92 114.488 67.36C114.488 70.2667 113.448 72.52 111.368 74.12C109.314 75.6933 106.408 76.48 102.648 76.48ZM118.622 76V47.52H126.622V76H118.622Z" fill="black"/>
<path d="M107.004 24.061L110.381 27.4376L116.008 19.5589M111.506 9C108.108 12.2268 103.583 13.9967 98.8974 13.9313C98.3014 15.7471 97.9985 17.6463 98 19.5574C98 27.9493 103.739 34.9996 111.506 37C119.274 35.0011 125.013 27.9508 125.013 19.5589C125.013 17.593 124.697 15.7006 124.115 13.9298H123.887C119.091 13.9298 114.733 12.0569 111.506 9Z" stroke="#00AF26" stroke-width="3" stroke-linecap="round" stroke-linejoin="round"/>
</svg>
